<svg width="1000" height="1000" viewBox="0 0 1000 1000"  xmlns="http://www.w3.org/2000/svg">
<path d="M500 104.652L862.222 313.781V732.039L610.502 877.37V876.694L596.855 862.522L587.888 860.788L584.257 855.173L572.043 852.716L569.203 844.046L556.347 822.67L550.517 814.149L529.143 773.34L525.469 752.293L529.143 750.32L535.967 731.297L555.301 727.897L587.44 718.33L604.203 708.727L629.893 685.444L652.016 654.501L657.248 642.692L716.892 612.048L727.03 589.574V541.808L724.93 538.659V517.663L722.831 513.464V469.372L718.106 454.675L698.16 426.331L678.214 402.71L656.693 367.542L636.747 328.699L627.824 317.676L617.326 296.155L606.828 290.906L588.456 269.911L577.958 258.363L578.919 256.727L588.456 255.381L589.981 252.391L577.958 247.758L552.759 243.273L517.631 237.144L498.348 238.191L457.757 244.715L441.395 251.27L426.67 260.165L416.879 264.5L415.085 267.639C360.496 278.137 326.534 294.742 321.285 326.236L342.138 327.656H389.075L393.111 332.514L423.905 334.159L447 351.2L460.977 375.865L450.933 402.71L453.054 406.359L447 415.179L437.06 416.357L418.524 428.632L368.596 494.405L355.401 515.039V520.812L360.65 516.613V519.069L344.081 537.157L318.37 567.801L321.808 570.193L331.375 567.801L344.081 559.729V570.791L305.011 638.915L303.436 652.562L293.988 656.761L269.842 679.857L208.954 723.949L137.851 780.108L137.851 775.687L169.746 750.496L137.778 732.039V313.781L500 104.652Z" fill="white"/>
<path d="M193.033 763.941L194.882 765.008L179.706 778.837L180.335 782.441L201.325 763.316H194.149L193.033 763.941Z" fill="white"/>
<path d="M242.899 792.731L420.638 895.348L447 883.035L458.51 872.971L465.387 872.223L470.879 875.119L474.028 873.545L461.431 855.173L438.335 828.403H434.661L407.366 805.833L392.144 798.484V786.411L379.546 778.538V754.954L377.341 753.16L355.401 781.687L334.93 796.385H331.3L333.355 789.561L331.3 789.111L324.499 793.595L323.079 790.979L328.631 781.687H326.965L304.543 795.613L273.517 798.484L269.842 794.417L273.517 786.411L269.842 784.837L242.899 792.731Z" fill="white"/>
<path d="M433.322 726.552L426.446 735.072L427.194 737.987L430.034 740.977L431.005 765.268L431.529 795.239L435.639 797.183L460.752 826.332L463.892 827.229L481.007 846.138L486.015 846.736L501.786 857.798L502.458 861.46H506.046L512.623 863.03L519.649 865.272L525.479 868.71C526.625 867.564 528.991 865.272 529.29 865.272C529.589 865.272 532.903 860.887 534.522 858.695L539.53 844.046L540.277 831.564L536.914 829.62L530.113 814.149L527.272 806.077C524.183 799.649 518.005 786.719 518.004 786.42C518.004 786.121 516.609 783.355 515.912 782.01L508.587 771.023L506.046 763.101L499.618 762.054L493.788 749.423L490.201 747.405L488.257 742.547L487.734 729.317L484.969 724.534L470.768 722.665H456.417L442.964 723.189L433.322 726.552Z" fill="white"/>
<path d="M485.243 257.66L469.993 260.66L465.243 266.66L490.243 263.66L485.243 257.66Z" fill="yellow"/>
</svg>
